<?xml version="1.0" encoding="UTF-8"?><svg id="Layer_2" xmlns="http://www.w3.org/2000/svg" xmlns:xlink="http://www.w3.org/1999/xlink" viewBox="0 0 1920 615.08"><defs><style>.cls-1{clip-path:url(#clippath);}.cls-2{fill:none;}.cls-2,.cls-3,.cls-4,.cls-5{stroke-width:0px;}.cls-3{fill:#d1020a;}.cls-4{fill:#e5004b;}.cls-5{fill:#eb6619;}</style><clipPath id="clippath"><rect class="cls-2" width="960" height="615.08"/></clipPath></defs><g id="Layer_1-2"><rect class="cls-5" width="960" height="615.08"/><g class="cls-1"><path class="cls-4" d="M-4.94,754.41V-35.88C241.12,102.71,462.07,210.59,660.71,292.29c-105.15,267.55-189.08,558.7-481,558.7-78.63,0-136.19-37.21-184.65-96.58"/><path class="cls-5" d="M-4.94-37.77v-388.17c321.77,125.04,644.01,81.43,966.72-22.44v204.31C640.04-10.8,317.76,21.75-4.94-37.77M660.71,292.29c69.29-176.29,147.77-342.32,301.06-408.09V402.01c-94.3-29.55-194.49-65.88-301.06-109.72"/><path class="cls-3" d="M-4.94-35.88v-1.9C317.76,21.75,640.04-10.8,961.78-244.06V-115.8c-153.29,65.77-231.78,231.81-301.06,408.09C462.07,210.59,241.12,102.71-4.94-35.88"/></g><rect class="cls-4" x="960" width="960" height="615.08"/></g></svg>