<svg width="24" height="24" viewBox="0 0 24 24" fill="none" xmlns="http://www.w3.org/2000/svg">
<path fill-rule="evenodd" clip-rule="evenodd" d="M6.57126 4.74275C6.66162 4.59215 6.82437 4.5 7.00001 4.5H17C17.1756 4.5 17.3384 4.59215 17.4288 4.74275L20.4288 9.74275C20.5412 9.93014 20.5189 10.1688 20.3737 10.3322L12.3737 19.3322C12.2788 19.4389 12.1428 19.5 12 19.5C11.8572 19.5 11.7212 19.4389 11.6263 19.3322L3.6263 10.3322C3.48111 10.1688 3.45882 9.93014 3.57126 9.74275L6.57126 4.74275ZM7.2831 5.5L4.8831 9.5H8.62799L9.82799 5.5H7.2831ZM10.872 5.5L9.67202 9.5H14.328L13.128 5.5H10.872ZM14.172 5.5L15.372 9.5H19.1169L16.7169 5.5H14.172ZM18.8866 10.5H15.3604L13.2447 16.8472L18.8866 10.5ZM12 17.4189L14.3063 10.5H9.69372L12 17.4189ZM8.63963 10.5L10.7553 16.8472L5.11343 10.5H8.63963Z" fill="#363636"/>
</svg>
