<?xml version="1.0" encoding="UTF-8"?>
<svg id="Layer_1" data-name="Layer 1" xmlns="http://www.w3.org/2000/svg" version="1.1" viewBox="0 0 24 24">
  <defs>
    <style>
      .cls-1 {
        fill: #fff;
        stroke-width: 0px;
      }
    </style>
  </defs>
  <path class="cls-1" d="M5.5,1.7c0-.1,0-.3,0-.5,0-.2.3-.2.5-.2h3.6c.2,0,.4.1.5.3l3.7,8.5,3.5-7.8h-2.6l-1,2.4c-.2.4-.6.4-.9.1-.1-.1-.1-.3,0-.5l1.2-2.7c0-.2.2-.3.4-.3h3.7c.2,0,.3,0,.4.2,0,.1,0,.3,0,.5l-3.8,8.6h1c.3,0,.5.2.5.5v3.7s0,0,0,0c1.2,1.6,1.5,3.8.4,5.8-.9,1.6-2.7,2.6-4.6,2.6-4.1,0-6.6-4.4-4.6-7.9.1-.2.2-.4.4-.6,0,0,0,0,0,0v-3.7c0-.3.2-.5.5-.5h1.1L5.5,1.7ZM15.1,11.3h-6.4v2.2c.9-.7,2-1.1,3.2-1.1s2.3.4,3.2,1.1v-2.2ZM10.2,10.1h2.6l-3.6-8.1h-2.5l3.5,8.1ZM11.9,13.5c-3.3,0-5.3,3.6-3.7,6.4.8,1.3,2.2,2.1,3.7,2.1,3.3,0,5.3-3.6,3.7-6.4-.8-1.3-2.2-2.1-3.7-2.1Z"/>
</svg>