<?xml version="1.0" encoding="UTF-8"?>
<svg id="Layer_1" data-name="Layer 1" xmlns="http://www.w3.org/2000/svg" version="1.1" viewBox="0 0 24 24">
  <defs>
    <style>
      .cls-1 {
        fill-rule: evenodd;
      }

      .cls-1, .cls-2 {
        fill: #fff;
        stroke-width: 0px;
      }
    </style>
  </defs>
  <path class="cls-1" d="M8,18v2h8v-2H8Z"/>
  <path class="cls-1" d="M9,17v1h6v-1h-6Z"/>
  <path class="cls-1" d="M12,14.9c2.6,0,5-2.7,5-6.5s0-1.8,0-2.3c0-.4-.2-.6-.2-.6-.1-.1-.5-.3-1.3-.3-.8,0-1.9,0-3.4,0s-2.6,0-3.4,0c-.8,0-1.1.2-1.3.3,0,0-.2.2-.2.6,0,.5,0,1.2,0,2.3,0,3.7,2.4,6.5,5,6.5ZM12,16c3.3,0,6-3.4,6-7.6s0-4.4-6-4.4-6,.2-6,4.4,2.7,7.6,6,7.6Z"/>
  <path class="cls-2" d="M13,15h-2v3h2v-3Z"/>
  <path class="cls-1" d="M19.5,7.5h-2.3v-1h2.8c.3,0,.5.2.5.5h0c0,1.1,0,2.7-.6,4-.3.7-.8,1.3-1.5,1.8-.7.5-1.7.7-2.9.7.5-.5,0-.9.9-1.1.6,0,1.1-.3,1.4-.5.5-.3.9-.8,1.1-1.3.4-1,.5-2.1.5-3.1Z"/>
  <path class="cls-1" d="M3.7,6.6c0,0,.2-.1.4-.1h2.7v1h-2.2c0,.9,0,2.1.5,3,.2.6.6,1,1.1,1.4.4.3.9.5,1.6.5.7,0,0,.7.7,1-1.2,0-2.1-.3-2.8-.7-.7-.5-1.2-1.1-1.5-1.8-.6-1.3-.6-2.9-.6-3.9,0,0,0,0,0,0,0-.1,0-.3.1-.4Z"/>
</svg>