<?xml version="1.0" encoding="UTF-8"?>
<svg id="Layer_1" data-name="Layer 1" xmlns="http://www.w3.org/2000/svg" version="1.1" viewBox="0 0 24 24">
  <defs>
    <style>
      .cls-1 {
        fill: #fff;
        fill-rule: evenodd;
        stroke-width: 0px;
      }
    </style>
  </defs>
  <path class="cls-1" d="M6.6,10c-.2,1.1-.1,2.3.6,3.7.9,1.8,2.5,3.1,4.2,4,1.7.9,3.5,1.5,4.8,1.8.3,0,.4.3.3.6,0,.3-.3.4-.6.3-1.3-.4-3.2-.9-5-1.9-1.8-1-3.5-2.4-4.6-4.4-.8-1.6-1-3.1-.7-4.4.3-1.3,1-2.4,1.9-3.1l.6.8c-.8.7-1.4,1.5-1.6,2.6Z"/>
  <path class="cls-1" d="M3.8,14.5c0,0,.1.1.2.2.2.2.5.2.9.3.4,0,.8,0,1.2-.1-.2,0-.5-.2-.8-.2-.5,0-1-.1-1.4-.1ZM6.6,14c.4.2.7.4.9.8.1.2,0,.5-.2.6-.6.3-1.5.6-2.4.5-.5,0-1-.2-1.4-.5-.4-.3-.7-.7-.9-1.3,0-.1,0-.3,0-.4,0-.1.2-.2.4-.2.6,0,1.5,0,2.4.1.4,0,.9.2,1.2.3Z"/>
  <path class="cls-1" d="M4,9.6c.1.3.4.6.7.8.3.2.6.3.8.5-.1-.4-.4-.7-.7-.9-.3-.2-.6-.3-.8-.4ZM5.4,9.2c.7.5.8.9.8,2.1,0,.1.4.7.2.7-.1,0-.3.1-.4,0-.5-.1-1.3-.4-1.9-.8-.6-.5-1.2-1.2-1.2-2.2,0-.1,0-.3.2-.4,0,0,.2-.1.4-.1.5,0,1.3.2,2,.7Z"/>
  <path class="cls-1" d="M8.6,10.3c-.5,0-.9,0-1.3.1-.2,0-.4.2-.5.3.6.1,1,0,1.3,0,.2,0,.3-.2.5-.4ZM8.6,11.6c-.7.4-1.6.4-2.8-.1-.1,0-.2-.2-.3-.3,0-.1,0-.3,0-.4.2-.4.7-.9,1.4-1.2.7-.3,1.6-.4,2.6,0,.2,0,.4.4.3.6-.1.5-.5,1.1-1.2,1.4Z"/>
  <path class="cls-1" d="M9.7,6.5c-.3,0-.7,0-1,.3-.3.2-.5.4-.8.6.4,0,.8,0,1.1-.2.3-.2.5-.4.7-.6ZM9.5,8c-.7.4-1.7.6-2.7,0-.1,0-.2-.2-.3-.3,0-.1,0-.3,0-.4.3-.4.9-1,1.6-1.4.7-.4,1.6-.6,2.6-.2.1,0,.2.2.3.3,0,.1,0,.3,0,.4-.3.5-.8,1.1-1.5,1.5Z"/>
  <path class="cls-1" d="M9.5,12.7c-.3.2-.5.5-.7.9-.1.3-.2.6-.3.9.4-.2.6-.5.7-.9.1-.3.2-.6.2-.9ZM10.2,14c-.3.8-1,1.5-2.1,1.7-.1,0-.3,0-.4-.1-.1,0-.2-.2-.2-.4,0-.5.1-1.3.4-2,.3-.7.9-1.5,1.9-1.7.1,0,.3,0,.4,0,.1,0,.2.2.2.3,0,.5,0,1.3-.3,2.1Z"/>
  <path class="cls-1" d="M5.5,5.9c0,.3,0,.7.3,1,.1.3.3.6.5.8,0-.4,0-.8-.2-1.1-.2-.3-.4-.5-.6-.7ZM7,6.1c.4.7.5,1.7,0,2.7,0,.1-.2.2-.3.2-.1,0-.3,0-.4,0-.4-.3-1-.9-1.3-1.6-.4-.7-.6-1.6,0-2.6,0-.1.2-.2.3-.3.1,0,.3,0,.4,0,.5.3,1.1.8,1.5,1.5Z"/>
  <path class="cls-1" d="M15.7,6.7c-.2.2-.2.5,0,.7.8.7,1.4,1.5,1.6,2.6.2,1.1.1,2.3-.6,3.7-.9,1.8-2.5,3.1-4.2,4-1.7.9-3.5,1.5-4.8,1.8-.3,0-.4.3-.3.6,0,.3.3.4.6.3,1.3-.4,3.2-.9,5-1.9,1.8-1,3.5-2.4,4.6-4.4.8-1.6,1-3.1.7-4.4-.3-1.3-1-2.2-1.9-2.9-.2-.2-.5-.4-.7-.1Z"/>
  <path class="cls-1" d="M20,14.5c-.3.2-.6.4-1,.4-.5.1-.9,0-1.3,0,0,0,0,0,0,0,.2-.1.6-.2,1-.3.4,0,.8-.1,1.2-.1ZM17.4,14c-.4.2-.7.4-.9.8,0,.2,0,.4.1.5.7.7,1.8.8,2.7.6.9-.2,1.8-.8,2.2-1.8,0-.1,0-.3,0-.4,0-.1-.2-.2-.4-.2-.6,0-1.5,0-2.4.1-.4,0-.9.2-1.2.3Z"/>
  <path class="cls-1" d="M20.5,9.6c-.1.3-.4.6-.7.8-.3.2-.6.3-.8.5.1-.4.4-.7.7-.9.3-.2.6-.3.8-.4ZM19.1,9.2c-.7.5-1.2,1.3-1.2,2.4,0,.1,0,.3.2.4.1,0,.3.1.4,0,.5-.1,1.3-.4,1.9-.8.6-.5,1.2-1.2,1.2-2.2,0-.1,0-.3-.2-.4-.1,0-.2-.1-.4-.1-.5,0-1.3.2-2,.7Z"/>
  <path class="cls-1" d="M15.8,10.3c.4,0,.7,0,.9.2.1,0,.3.2.4.3-.4,0-.7,0-1-.1-.1,0-.3-.2-.4-.3ZM15.7,11.5c.6.3,1.5.4,2.5,0,.1,0,.2-.2.3-.3,0-.1,0-.3,0-.4-.2-.4-.6-.8-1.3-1.1-.6-.3-1.4-.4-2.3,0-.2.1-.4.4-.3.6.2.4.5,1,1.1,1.3Z"/>
  <path class="cls-1" d="M13.8,6.5c.3,0,.7,0,1,.3.3.2.5.4.8.6-.4,0-.8,0-1.1-.2-.3-.2-.5-.4-.7-.6ZM14.1,8c.7.4,1.7.6,2.7,0,.1,0,.2-.2.3-.3,0-.1,0-.3,0-.4-.3-.4-.9-1-1.6-1.4-.7-.4-1.6-.6-2.6-.2-.1,0-.2.2-.3.3,0,.1,0,.3,0,.4.3.5.8,1.1,1.5,1.5Z"/>
  <path class="cls-1" d="M14.5,12.7c.3.2.5.5.7.9.1.3.2.6.3.9-.4-.2-.6-.5-.7-.9-.1-.3-.2-.6-.2-.9ZM13.8,14c.3.8,1,1.5,2.1,1.7.1,0,.3,0,.4-.1.1,0,.2-.2.2-.4,0-.5-.1-1.3-.4-2-.3-.7-.9-1.5-1.9-1.7-.1,0-.3,0-.4,0-.1,0-.2.2-.2.3,0,.5,0,1.3.3,2.1Z"/>
  <path class="cls-1" d="M18.3,5.9c0,.3,0,.7-.3,1-.1.3-.3.6-.5.8,0-.4,0-.8.2-1.1.2-.3.4-.5.6-.7ZM16.8,6.1c-.2.4-.4.9-.4,1.4,0,.4.5.7.7,1.2,0,.1-.1.3,0,.4.1,0,.3,0,.4,0,.4-.3,1-.9,1.3-1.6.4-.7.6-1.6,0-2.6,0-.1-.2-.2-.3-.3-.1,0-.3,0-.4,0-.5.3-1.1.8-1.5,1.5Z"/>
</svg>