<?xml version="1.0" encoding="UTF-8"?>
<svg id="Layer_1" data-name="Layer 1" xmlns="http://www.w3.org/2000/svg" version="1.1" viewBox="0 0 24 24">
  <defs>
    <style>
      .cls-1 {
        fill: #fff;
        stroke-width: 0px;
      }
    </style>
  </defs>
  <path class="cls-1" d="M18.3,12.9c0,0-.2,0-.4,0,.1,0,.3-.1.4-.2.5-.5.4-1.2.3-1.5,0-.2-.2-.3-.3-.3,0,0-.2,0-.4,0,.1-.1.2-.2.3-.4.2-.6-.2-1.2-.3-1.5,0-.1-.3-.2-.4-.1-.2,0-.5.2-.8.4.2-.2.4-.6.4-.9,0-.6-.6-1.1-.9-1.3-.1,0-.3,0-.4,0-.2.2-.7.5-.8,1-.3-.3-.4-.4-.5-.4h-.3c0,.3,0,.5.1.5,0,0,.1.1.2.2,0,0,.2.2.3.4,0,0-.2,0-.2,0-.7,0-1.2.6-1.4.8,0,.1,0,.3,0,.4.2.2.7.8,1.4.8s.7,0,1.2-.6c.2.4.3.8.4,1.2-.5-.4-1.3-.3-1.6-.3-.2,0-.3.2-.3.3,0,.3,0,1,.4,1.5.3.3.7.3,1.1.3s.3,0,.4,0c-.1.4-.3.9-.6,1.3,0,0,0,0,0,0,0-.6-.7-1.1-.9-1.3-.1,0-.3,0-.4,0-.2.2-.8.7-.8,1.3,0,.6.5,1,.8,1.2-.6.4-1.3.8-2.1,1.1-.2,0-.4.2-.6.3-.2,0-.4-.2-.6-.3-.8-.3-1.5-.7-2.1-1.1.3-.2.8-.6.8-1.2,0-.6-.5-1.2-.8-1.3-.1-.1-.3-.1-.4,0-.3.2-.9.6-.9,1.3,0,0,0,0,0,0-.3-.4-.5-.8-.6-1.3.1,0,.2,0,.4,0,.4,0,.8,0,1.1-.3.5-.4.5-1.2.4-1.5,0-.2-.1-.3-.3-.3-.3,0-1.1-.1-1.6.3.1-.4.3-.8.5-1.2.3.3.7.6,1.2.6s1.2-.6,1.4-.8c0-.1,0-.3,0-.4-.2-.2-.7-.8-1.4-.8s-.2,0-.2,0c.1-.1.2-.3.3-.4,0,0,.1-.1.2-.2,0,0,.2-.2.1-.4v-.2c0,0-.3,0-.3,0,0,0-.1,0-.5.4-.1-.5-.6-.9-.8-1-.1,0-.3,0-.4,0-.3.2-.9.7-.9,1.3s.2.7.4.9c-.3-.2-.6-.3-.8-.4-.2,0-.3,0-.4.1-.2.3-.6.9-.3,1.5h0c0,.2.1.3.3.4-.1,0-.3,0-.4,0-.2,0-.3.1-.3.3,0,.3-.1,1,.3,1.5.1.1.2.2.4.2-.1,0-.3,0-.4,0-.2,0-.3.2-.3.3,0,.3.1,1,.7,1.4.2.2.5.2.8.2s0,0,.1,0c-.2.2-.4.3-.5.4-.1.1-.1.3,0,.4.2.3.7.8,1.3.9,0,0,0,0,0,0,.6,0,1.1-.5,1.3-.7.6.5,1.4.9,2.3,1.3,0,0,0,0,.1,0-.8.4-1.5.6-1.9.8-.3.1-.4.2-.5.2,0,0,0,0-.1,0-.3.1-.2.4-.2.4,0,0,0,.2.3.2s0,0,.2,0c0,0,0,0,0,0h0c.1,0,.7-.3,3-1.3,2.2,1,2.8,1.2,3,1.3h0s0,0,0,0c0,0,.1,0,.2,0,.2,0,.3-.2.3-.2,0,0,.1-.2-.2-.4,0,0,0,0-.1,0,0,0-.3-.1-.5-.2-.4-.2-1.1-.5-1.9-.8,0,0,0,0,.1,0,.9-.4,1.7-.8,2.3-1.3.2.2.7.7,1.3.7s0,0,0,0c.7,0,1.1-.6,1.3-.9,0-.1,0-.3,0-.4,0-.1-.3-.3-.5-.4,0,0,0,0,.1,0,.3,0,.6,0,.8-.2.6-.4.6-1.1.7-1.4,0-.2,0-.3-.3-.3ZM7.1,9.6c0,0,0-.2-.2-.3,0,0,0,0,.1.1,0,0,0,0,0,0,0,0,0,0,0,.1ZM8.2,14.3c0-.3.3-.6.5-.7.2.2.5.5.4.8,0,.3-.3.6-.5.7-.2-.2-.5-.5-.4-.8ZM7.5,11.6c.2-.2.7-.2.9-.2,0,.2,0,.7-.2.9-.2.2-.7.2-.9.2,0-.2,0-.7.2-.9ZM9.5,9.6c-.2.2-.5.5-.8.5s-.7-.3-.8-.5c.2-.2.5-.5.8-.5s.6.3.8.5ZM7.3,7.4c.2.2.5.5.5.8s-.3.6-.5.8c-.2-.2-.5-.5-.5-.8s.3-.6.5-.8ZM5.8,9.3c.2,0,.6.3.7.6.1.3,0,.7-.2.9-.2,0-.6-.3-.7-.6-.1-.3,0-.7.2-.9ZM5.2,11.3c.2,0,.7,0,.9.2.2.2.2.6.2.9-.2,0-.7,0-.9-.2-.2-.2-.2-.6-.2-.9ZM5.7,14.2h0c-.3-.2-.4-.6-.4-.8.2,0,.7-.1,1,0,.3.2.4.6.4.8-.2,0-.7.1-1,0ZM7.1,16c-.3,0-.6-.3-.8-.5.2-.2.5-.4.8-.4.3,0,.6.3.8.5-.2.2-.5.4-.8.4ZM16.1,9.5s0,0,0,0c0,0,0,0,.1-.1,0,0-.1.2-.2.3,0,0,0,0,0-.1ZM18.1,11.3c0,.2,0,.7-.2.9-.2.2-.7.2-.9.2,0-.2,0-.7.2-.9.2-.2.7-.2.9-.2ZM16.7,9.8c.1-.3.5-.5.7-.6.1.2.3.6.2.9-.1.3-.5.5-.7.6-.1-.2-.3-.6-.2-.9ZM16,7.4c.2.2.5.5.5.8s-.3.6-.5.8c-.2-.2-.5-.5-.5-.8s.3-.6.5-.8ZM14.6,10c-.3,0-.7-.3-.8-.5.2-.2.5-.5.8-.5s.6.3.8.5c-.2.2-.5.5-.8.5ZM16.1,12.5c-.2,0-.7,0-.9-.2-.2-.2-.3-.6-.2-.9.2,0,.7,0,.9.2.2.2.3.6.2.9ZM14.5,13.5c.2.1.5.4.5.7,0,.3-.3.6-.4.8-.2-.1-.5-.4-.5-.7,0-.3.3-.6.4-.8ZM16.2,16c-.3,0-.7-.3-.8-.4.2-.2.5-.5.8-.5.3,0,.7.3.8.4-.2.2-.5.5-.8.5ZM17.6,14.2c-.3.2-.7.1-1,0,0-.2.1-.6.4-.8.3-.2.7-.1,1,0,0,.2-.1.6-.4.8Z"/>
</svg>