<?xml version="1.0" encoding="UTF-8"?><svg id="Camada_1" xmlns="http://www.w3.org/2000/svg" viewBox="0 0 619.72 656.05"><defs><style>.cls-1{fill:none;stroke:#fff;stroke-miterlimit:10;stroke-width:16px;}</style></defs><circle class="cls-1" cx="307.29" cy="411.86" r="102.36"/><path class="cls-1" d="M246.43,328.66v-23.4c0-12.92,10.39-23.4,23.2-23.4h74.92c12.81,0,23.2,10.48,23.2,23.4v23.4"/><circle class="cls-1" cx="307.09" cy="411.61" r="77.67"/><path class="cls-1" d="M274.71,274.11l52.75-113.13c2-4.28,7.08-7.75,11.36-7.75h47.91c4.28,0,6.13,3.47,4.14,7.75l-52.75,113.13c-2,4.28-7.08,7.75-11.36,7.75h-47.91c-4.28,0-6.13-3.47-4.14-7.75Z"/><path class="cls-1" d="M276.06,274.11l-52.75-113.13c-2-4.28-.14-7.75,4.14-7.75h47.91c4.28,0,9.37,3.47,11.36,7.75l20.57,44.12"/></svg>