<?xml version="1.0" encoding="UTF-8"?><svg id="Camada_1" xmlns="http://www.w3.org/2000/svg" viewBox="0 0 619.72 656.05"><defs><style>.cls-1{fill:none;stroke:#fff;stroke-miterlimit:10;stroke-width:20px;}</style></defs><path class="cls-1" d="M205.08,155.44c-.04,1.28-8.54,211.65,97.04,211.65,105.47,0,96.76-209.68,96.93-211.65.17-1.98-193.92-1.28-193.97,0Z"/><path class="cls-1" d="M243.1,465.28s-2.69-39.03,14.19-39.04c59.82-.02,88.87,0,88.87,0,0,0,17.11-1.62,14.83,39.04h-117.89Z"/><path class="cls-1" d="M222.57,293.22s-95.35-53.72-63.64-106.88c14.82-24.83,46.41.81,46.41.81"/><path class="cls-1" d="M380.96,293.22s95.35-53.72,63.64-106.88c-14.82-24.83-46.41.81-46.41.81"/><path class="cls-1" d="M286.33,365.63s5.92,55.04-19.91,60.62"/><path class="cls-1" d="M318.78,365.63s-5.92,55.04,19.91,60.62"/><rect class="cls-1" x="206.91" y="465.28" width="188.27" height="37.83" rx="7.5" ry="7.5"/></svg>