<svg width="24" height="24" viewBox="0 0 24 24" fill="none" xmlns="http://www.w3.org/2000/svg">
<path d="M5.53998 1.70007C5.45998 1.55407 5.45998 1.37607 5.53998 1.23007C5.63598 1.07107 5.81498 0.98107 5.99998 1.00007H9.57998C9.77598 1.00307 9.95198 1.12107 10.03 1.30007L13.769 9.77907L17.23 2.00007H14.64L13.64 4.44007C13.49 4.79807 13.009 4.85907 12.774 4.55007C12.665 4.40707 12.64 4.21607 12.71 4.05007L13.87 1.31007C13.942 1.12807 14.115 1.00607 14.31 1.00007H18C18.17 1.00007 18.328 1.08707 18.42 1.23007C18.5 1.37607 18.5 1.55407 18.42 1.70007L14.627 10.3001H15.58C15.856 10.3001 16.08 10.5241 16.08 10.8001V14.5001C16.08 14.5141 16.079 14.5281 16.077 14.5421C17.282 16.1361 17.584 18.3901 16.444 20.3651C15.503 21.9961 13.763 23.0001 11.88 23.0001C7.82298 23.0001 5.28798 18.6081 7.31598 15.0951C7.42998 14.8981 7.55498 14.7091 7.69198 14.5311C7.69098 14.5211 7.68998 14.5101 7.68998 14.5001V10.8001C7.68998 10.5241 7.91398 10.3001 8.18998 10.3001H9.25698L5.53998 1.70007ZM15.08 11.3001H8.68998V13.5351C9.59298 12.8481 10.709 12.4601 11.88 12.4601C13.117 12.4601 14.212 12.8681 15.08 13.5351V11.3001ZM10.25 10.0701H12.85L9.24998 2.00007H6.75998L10.25 10.0701ZM11.88 13.4601C8.59298 13.4601 6.53898 17.0181 8.18198 19.8651C8.94498 21.1861 10.354 22.0001 11.88 22.0001C15.167 22.0001 17.221 18.4421 15.578 15.5951C14.815 14.2741 13.406 13.4601 11.88 13.4601Z" fill="#363636"/>
</svg>
