<?xml version="1.0" encoding="UTF-8"?>
<svg id="Layer_1" data-name="Layer 1" xmlns="http://www.w3.org/2000/svg" version="1.1" viewBox="0 0 24 24">
  <defs>
    <style>
      .cls-1 {
        fill: #fff;
        stroke-width: 0px;
      }
    </style>
  </defs>
  <path class="cls-1" d="M14.6,11.9v-.7c0-.6-.5-1.1-1.1-1.1l2-4c0-.2,0-.4,0-.5,0-.1-.2-.2-.4-.2h-1.9c-.3,0-.6.2-.7.5l-.5,1-.5-1c-.1-.3-.4-.5-.7-.5h-1.9c-.2,0-.3,0-.4.2,0,.1,0,.3,0,.5l2,4s0,0,0,0c-.6,0-1.1.6-1.1,1.1v.7c-1,.7-1.6,1.9-1.6,3.2,0,2.2,1.9,4,4.3,4s4.3-1.8,4.3-4-.6-2.4-1.6-3.2ZM13,6c0,0,.1-.1.2-.1h1.7l-2,4c0,0-.1.1-.2.1h-1.7l2-4ZM10.7,5.9s.1,0,.2.1l.7,1.5-.9,1.8-1.7-3.4h1.7ZM9.9,11.2c0-.3.3-.6.6-.6h2.9c.3,0,.6.3.6.6v.3c-.6-.3-1.3-.5-2-.5s-1.4.2-2,.5v-.4ZM11.9,18.5c-2,0-3.7-1.5-3.7-3.5s1.6-3.5,3.7-3.5,3.7,1.5,3.7,3.5-1.6,3.5-3.7,3.5Z"/>
  <path class="cls-1" d="M11.9,11.9c-1.8,0-3.3,1.4-3.3,3.1s1.5,3.1,3.3,3.1,3.3-1.4,3.3-3.1-1.5-3.1-3.3-3.1ZM11.9,17.6c-1.5,0-2.7-1.1-2.7-2.5s1.2-2.5,2.7-2.5,2.7,1.1,2.7,2.5-1.2,2.5-2.7,2.5Z"/>
</svg>