<svg width="24" height="24" viewBox="0 0 24 24" fill="none" xmlns="http://www.w3.org/2000/svg">
<path d="M6.5 10C6.5 9.72386 6.72386 9.5 7 9.5H9.5V7C9.5 6.72386 9.72386 6.5 10 6.5C10.2761 6.5 10.5 6.72386 10.5 7V9.5H13C13.2761 9.5 13.5 9.72386 13.5 10C13.5 10.2761 13.2761 10.5 13 10.5H10.5V13C10.5 13.2761 10.2761 13.5 10 13.5C9.72386 13.5 9.5 13.2761 9.5 13V10.5H7C6.72386 10.5 6.5 10.2761 6.5 10Z" fill="white"/>
<path fill-rule="evenodd" clip-rule="evenodd" d="M9.91208 17.5601C4.13807 17.5601 0.530075 11.3101 3.41708 6.31006C6.30408 1.31006 13.5201 1.31006 16.4071 6.31006C17.0651 7.45006 17.4121 8.74306 17.4121 10.0601C17.4091 11.9141 16.7351 13.6101 15.6201 14.9191L21.4521 20.5901C21.6481 20.7821 21.6481 21.0981 21.4521 21.2901C21.3571 21.3861 21.2271 21.4401 21.0921 21.4401C20.9611 21.4421 20.8351 21.3911 20.7421 21.3001L14.9191 15.6381C13.5921 16.8311 11.8371 17.5571 9.91208 17.5601ZM9.91208 3.56006C4.90807 3.56006 1.78108 8.97706 4.28308 13.3101C6.49208 17.1351 11.6241 17.5831 14.5181 14.6561C14.5341 14.6331 14.5521 14.6111 14.5721 14.5901C14.5901 14.5721 14.6091 14.5551 14.6291 14.5411C14.9691 14.1791 15.2761 13.7691 15.5411 13.3101C16.1121 12.3221 16.4121 11.2011 16.4121 10.0601C16.4121 6.47006 13.5021 3.56006 9.91208 3.56006Z" fill="white"/>
</svg>
