<?xml version="1.0" encoding="UTF-8"?><svg id="Camada_1" xmlns="http://www.w3.org/2000/svg" viewBox="0 0 619.72 656.05"><defs><style>.cls-1{stroke-width:12px;}.cls-1,.cls-2{fill:none;stroke:#fff;stroke-miterlimit:10;}.cls-2{stroke-width:15px;}</style></defs><path class="cls-2" d="M301.26,521.62v-161.05c-113.03-7.69-101.67-124.08-101.67-124.08,0,0,95.42,13.06,118.14,119.85"/><path class="cls-2" d="M294.97,300.14s35.83-68.19,107.96-79.55c0,0,17.89,134.1-104.65,139.74"/><path class="cls-2" d="M221.63,242.5s-2.16-44.06,21.13-67.91c0,0,23.44-5.25,52.54,25.99"/><path class="cls-2" d="M283.67,190.28s13.61-23.64,53.94-36.14c0,0,27.79,16.31,52.23,69.22"/><path class="cls-2" d="M251.84,257.45s10.7-31.21,43.12-57.32c0,0,20.38-6.88,62.07,36.87"/><path class="cls-1" d="M301.26,464.66s2.55-13.49,26.14-28.38c18.05-11.4,60.72-22.41,99.39-24.78"/><path class="cls-2" d="M328.46,436.71s69.44,40.78,98.33-29.82c0,0-69.29-39.76-98.33,29.82"/><path class="cls-1" d="M301.26,429.76s0-5.99-19.57-17.64c-18.34-10.92-48.32-23.55-100.57-26.83"/><path class="cls-2" d="M280.63,412.55s-69.44,40.78-98.33-29.82c0,0,69.29-39.76,98.33,29.82"/></svg>