<svg width="24" height="24" viewBox="0 0 24 24" fill="none" xmlns="http://www.w3.org/2000/svg">
<path d="M9.75181 21.4668C9.24781 21.4698 8.76381 21.2678 8.41181 20.9068L3.05181 15.5568C2.31281 14.8118 2.31281 13.6118 3.05181 12.8668L12.6118 3.30677C12.9328 2.97877 13.3638 2.78277 13.8218 2.75677L16.9918 2.53677C17.5388 2.50577 18.0738 2.70977 18.4618 3.09677L20.9918 5.55677C21.3638 5.95477 21.5468 6.49477 21.4918 7.03677L21.2118 10.1268C21.1768 10.5738 20.9808 10.9928 20.6618 11.3068L11.0918 20.9068C10.7398 21.2688 10.2558 21.4708 9.75181 21.4668ZM17.1218 3.53677H17.0618L13.8918 3.74677C13.6728 3.76477 13.4668 3.86077 13.3118 4.01677L3.75181 13.5768C3.40081 13.9318 3.40081 14.5018 3.75181 14.8568L9.11181 20.2068C9.27881 20.3748 9.50581 20.4678 9.74181 20.4668C9.98081 20.4658 10.2098 20.3728 10.3818 20.2068L19.9918 10.6368C20.1468 10.4888 20.2428 10.2898 20.2618 10.0768L20.5318 6.97677C20.5578 6.71277 20.4618 6.45177 20.2718 6.26677L17.7618 3.79677C17.5918 3.62877 17.3608 3.53477 17.1218 3.53677ZM17.3018 8.17677C16.1318 8.18477 15.3918 6.92277 15.9708 5.90577C16.5488 4.88877 18.0118 4.87877 18.6028 5.88777C18.7398 6.12077 18.8118 6.38677 18.8118 6.65677C18.8118 7.49277 18.1378 8.17177 17.3018 8.17677ZM17.3018 6.17677C16.9018 6.16877 16.6428 6.59777 16.8368 6.94777C17.0298 7.29877 17.5308 7.30777 17.7368 6.96477C17.7878 6.88177 17.8138 6.78477 17.8118 6.68677C17.8288 6.39377 17.5958 6.14577 17.3018 6.14677V6.17677Z" fill="#363636"/>
</svg>
