<?xml version="1.0" encoding="UTF-8"?>
<svg id="Layer_1" data-name="Layer 1" xmlns="http://www.w3.org/2000/svg" version="1.1" viewBox="0 0 24 24">
  <defs>
    <style>
      .cls-1 {
        fill: #fff;
        stroke-width: 0px;
      }
    </style>
  </defs>
  <path class="cls-1" d="M16.7,14.6s-1.4-.7-2.6-.3c-.7.2-1.2.7-1.6,1.5-.2.1-.4.3-.5.4v-2.8c1.2-.1,2.2-.6,2.9-1.3,1.4-1.6,1.1-4,1.1-4.1v-.3h-.6c-.9-1.8-2-2.4-2-2.5h-.2c-1.1.3-1.8.9-2,1.2-.9-.6-1.6-.5-1.6-.4h0c-.7.7-.9,1.7-.9,2.3-.3,0-.5-.1-.5-.1h-.3v.2s-.2,2.1,1.1,3.5c.7.8,1.6,1.2,2.9,1.3v1.7s-.2-.1-.3-.2c-.4-.8-.9-1.3-1.6-1.5-1.3-.4-2.6.3-2.6.3h-.2v.3c.4.8.9,1.3,1.6,1.6.3,0,.6.1.8.1.8,0,1.5-.3,1.7-.4.2.1.4.3.4.3v3.4h.6v-2.2c0-.1.3-.4.7-.7.2,0,.9.4,1.7.4s.5,0,.8-.1c.7-.2,1.2-.8,1.6-1.6v-.2h-.1c0-.1-.3.2-.3.2ZM9.4,14c.3,0,.6.3.8.5-.6-.2-1.4-.4-2.2-.5.4-.1.9-.2,1.4,0ZM8.6,15.2c-.4-.1-.7-.4-1-.8,1.1.1,2,.3,2.7.7-.4.2-1.1.3-1.7.1ZM14.4,11.7c-.5.5-1.1.9-1.8,1-.2-.7-.5-1.3-.8-1.8.3-.5,1.5-2.1,3.6-2.6,0,.6,0,2.2-1,3.3h0ZM11.5,7.6c.2,0,.8,0,1.8,1-.4.2-.8.5-1.1.9-.4.4-.7.7-.9,1-.4-.5-.9-.9-1.3-1.2.2-.3.6-1.1,1.4-1.7h.1ZM13,5.9c.3.2,1,.8,1.7,2.1-.3,0-.5.2-.8.3-1.2-1.2-2-1.3-2.4-1.3h-.1c.2-.3.7-.8,1.6-1.1ZM9.5,6.6c.2,0,.8,0,1.5.7-.8.6-1.2,1.3-1.4,1.7-.3-.1-.5-.3-.7-.3,0-.4,0-1.4.7-2h-.1ZM9.2,11.6c-.8-.9-1-2.2-1-2.8.3,0,.9.3,1.5.6,1.2.7,2.1,1.8,2.4,3.3h-.4c-1.1,0-2-.5-2.6-1.1h.1ZM14.2,14.8c.6-.2,1.2,0,1.6,0-.9.1-1.7.3-2.4.5.2-.3.5-.5.8-.6h0ZM15,16c-.6.2-1.3,0-1.7-.1.7-.3,1.7-.5,2.7-.6-.3.4-.6.6-.9.7h-.1Z"/>
</svg>