<?xml version="1.0" encoding="UTF-8"?>
<svg id="Layer_1" data-name="Layer 1" xmlns="http://www.w3.org/2000/svg" version="1.1" viewBox="0 0 24 24">
  <defs>
    <style>
      .cls-1 {
        fill: #fff;
        stroke-width: 0px;
      }
    </style>
  </defs>
  <path class="cls-1" d="M17.6,6.6c-.2-.3-.5-.5-.8-.6-.3,0-.6,0-.9.1,0-.2,0-.3,0-.5,0,0,0,0,0,0v-.2s-.2-.1-.2-.1c-.1,0-.1,0-1.4,0-.7,0-1.6,0-2.6,0-.9,0-1.9,0-2.6,0-1.3,0-1.3,0-1.4,0h-.2c0,0,0,.3,0,.3h.4s-.4,0-.4,0c0,0,0,.2,0,.5-.3-.1-.6-.2-.9-.1-.3,0-.6.2-.8.6-.3.5-.4,1-.2,1.5.4,1.4,2.2,2.5,2.7,2.8.3.8.7,1.4,1.2,1.9.4.4.8.6,1.3.8,0,.2,0,.5,0,.7,0,.3-.1.8-.4.9,0,0-.2,0-.3,0-.2,0-.4,0-.6.2-.3.3-.4.8-.4,1.2h-.7c-.4,0-.7.3-.7.6v.8c0,.4.3.6.7.6h6.7c.4,0,.7-.3.7-.6v-.8c0-.4-.3-.6-.7-.6h-.6c0-.6-.2-1-.4-1.2-.2-.2-.4-.2-.6-.2,0,0-.1,0-.2,0-.3,0-.4-.6-.4-.9,0-.3,0-.6,0-.7.4-.1.8-.4,1.2-.7.5-.5.9-1.2,1.2-2,.6-.3,2.3-1.4,2.7-2.8.2-.5,0-1.1-.2-1.5ZM6.3,8c0-.4,0-.7.1-1,.1-.2.2-.2.3-.2.3,0,.6.1.8.2,0,.4,0,.9.1,1.5,0,.5.1.9.2,1.3-.6-.5-1.4-1.1-1.6-1.9ZM14.9,18h-6.5v-.7h6.5v.7ZM13.4,16c0,0,.2.2.2.7h-3.8c0-.3,0-.6.2-.7,2.2,0,3.3,0,3.4,0ZM12.2,15.2c-.3,0-.6,0-.9,0,.2-.5.3-1,.2-1.4,0,0,.1,0,.2,0s.2,0,.2,0c0,.4,0,1,.2,1.4ZM13.4,12.4c-.5.4-1,.7-1.7.7s-1.2-.2-1.7-.7c-1-.9-1.4-2.7-1.5-3.9-.1-1-.2-1.9-.2-2.4,1.2,0,5.5,0,6.7,0,0,2.3-.4,5.1-1.7,6.4ZM17,8c-.2.7-1,1.4-1.6,1.9.2-1,.3-2,.4-2.8.2-.1.5-.3.8-.2,0,0,.2,0,.3.2.2.3.2.6.1,1Z"/>
</svg>