<svg width="24" height="24" viewBox="0 0 24 24" fill="none" xmlns="http://www.w3.org/2000/svg">
<path fill-rule="evenodd" clip-rule="evenodd" d="M6.61126 9.98152C6.37519 11.035 6.48917 12.2931 7.20981 13.7064C8.11965 15.4908 9.68662 16.7645 11.3786 17.6871C13.0694 18.6089 14.848 19.1602 16.1344 19.5186C16.4004 19.5927 16.556 19.8684 16.4818 20.1344C16.4077 20.4004 16.132 20.556 15.866 20.4819C14.5599 20.118 12.6928 19.5426 10.8999 18.565C9.10815 17.5881 7.35345 16.1896 6.31893 14.1607C5.50337 12.5612 5.34344 11.0661 5.63545 9.76287C5.9262 8.46531 6.65675 7.39408 7.56368 6.61992L8.21292 7.3805C7.4481 8.03336 6.84858 8.92237 6.61126 9.98152Z" fill="#363636"/>
<path fill-rule="evenodd" clip-rule="evenodd" d="M3.79336 14.5019C3.85218 14.5664 3.91563 14.621 3.98216 14.6676C4.20764 14.8256 4.50334 14.9153 4.84965 14.9411C5.2342 14.9697 5.64261 14.9166 6.00529 14.827C5.78239 14.7423 5.50955 14.6739 5.20404 14.6221C4.74171 14.5439 4.24062 14.5096 3.79336 14.5019ZM6.58234 13.9858C6.93327 14.1501 7.29063 14.4042 7.46044 14.8053C7.56332 15.0483 7.45963 15.3294 7.22361 15.4474C6.6603 15.7291 5.6954 16.0068 4.77536 15.9383C4.30916 15.9036 3.82362 15.7775 3.40847 15.4867C2.984 15.1894 2.66773 14.7436 2.51516 14.1381C2.4787 13.9935 2.50876 13.84 2.59714 13.7198C2.68551 13.5996 2.82295 13.5251 2.97193 13.5168C3.58016 13.4825 4.51947 13.492 5.37097 13.6362C5.79559 13.7081 6.22273 13.8174 6.58234 13.9858Z" fill="#363636"/>
<path fill-rule="evenodd" clip-rule="evenodd" d="M4.02055 9.64533C4.15971 9.96612 4.40637 10.238 4.71866 10.4682C4.97973 10.6606 5.27192 10.8115 5.54895 10.9234C5.42024 10.5262 5.16459 10.241 4.85916 10.0298C4.59877 9.84973 4.30206 9.72531 4.02055 9.64533ZM5.42791 9.20728C6.12179 9.68708 6.24798 10.1052 6.20861 11.2731C6.20366 11.42 6.56232 11.9252 6.44703 12.0164C6.33175 12.1076 6.1822 12.1434 6.03811 12.1144C5.52642 12.0113 4.76823 11.747 4.12533 11.2731C3.47708 10.7953 2.89358 10.0602 2.89506 9.03087C2.89526 8.89345 2.95201 8.76216 3.05198 8.66787C3.15195 8.57357 3.28632 8.52458 3.42352 8.5324C3.96069 8.56302 4.75792 8.744 5.42791 9.20728Z" fill="#363636"/>
<path fill-rule="evenodd" clip-rule="evenodd" d="M8.59799 10.2953C8.09241 10.1978 7.67651 10.284 7.34702 10.4374C7.15401 10.5272 6.98642 10.6423 6.84657 10.7636C7.43708 10.904 7.85358 10.8148 8.13788 10.6692C8.32944 10.5712 8.48193 10.4369 8.59799 10.2953ZM8.59357 11.5594C7.89288 11.9181 6.95823 11.9662 5.79906 11.458C5.66883 11.4009 5.56908 11.291 5.52475 11.1559C5.48043 11.0208 5.49573 10.8732 5.56683 10.7501C5.79597 10.3532 6.25653 9.84192 6.92502 9.53076C7.61253 9.21075 8.4976 9.11411 9.51745 9.53496C9.7585 9.63443 9.88262 9.90245 9.80258 10.1506C9.65398 10.6114 9.27269 11.2117 8.59357 11.5594Z" fill="#363636"/>
<path fill-rule="evenodd" clip-rule="evenodd" d="M9.69476 6.49934C9.34528 6.48766 8.99396 6.59407 8.65219 6.77764C8.36646 6.93111 8.10493 7.13047 7.88518 7.33287C8.29914 7.3867 8.66642 7.2779 8.98811 7.0924C9.26235 6.93425 9.50189 6.71944 9.69476 6.49934ZM9.48767 7.95868C8.75686 8.38011 7.80913 8.54408 6.77071 8.00819C6.6401 7.94079 6.54576 7.81933 6.51276 7.67611C6.47977 7.53288 6.51147 7.38239 6.59942 7.26464C6.91181 6.84646 7.47541 6.27458 8.17902 5.89667C8.88849 5.51561 9.80271 5.3033 10.7321 5.7456C10.8562 5.80465 10.9505 5.91217 10.9929 6.0429C11.0353 6.17362 11.022 6.31603 10.9562 6.43665C10.6984 6.90891 10.1933 7.55175 9.48767 7.95868Z" fill="#363636"/>
<path fill-rule="evenodd" clip-rule="evenodd" d="M9.52632 12.7377C9.24056 12.9392 9.02459 13.2361 8.86277 13.5886C8.72749 13.8834 8.6392 14.2002 8.58606 14.4942C8.94867 14.2874 9.17594 13.979 9.32056 13.637C9.44386 13.3454 9.5053 13.0296 9.52632 12.7377ZM10.2416 14.0265C9.91304 14.8035 9.25615 15.506 8.1047 15.7051C7.95987 15.7302 7.81136 15.6902 7.69864 15.5959C7.58591 15.5016 7.5204 15.3625 7.51951 15.2155C7.51633 14.6935 7.62078 13.8974 7.95391 13.1715C8.28981 12.4396 8.89082 11.7187 9.89888 11.5107C10.0335 11.483 10.1736 11.5118 10.2862 11.5905C10.3989 11.6692 10.4742 11.7908 10.4945 11.9267C10.5738 12.4588 10.5588 13.2762 10.2416 14.0265Z" fill="#363636"/>
<path fill-rule="evenodd" clip-rule="evenodd" d="M5.51729 5.85489C5.49729 6.20399 5.5953 6.55774 5.77067 6.90379C5.91728 7.1931 6.11035 7.45931 6.30747 7.68381C6.37114 7.27126 6.27113 6.90149 6.09334 6.57547C5.94177 6.29754 5.73273 6.05295 5.51729 5.85489ZM6.97128 6.0967C7.37518 6.83734 7.51652 7.78871 6.95603 8.81407C6.88554 8.94304 6.76187 9.03445 6.6179 9.06402C6.47392 9.09359 6.32424 9.05832 6.20861 8.96758C5.79799 8.64532 5.23971 8.06825 4.87867 7.35584C4.51463 6.63749 4.32416 5.71846 4.78848 4.79984C4.85047 4.6772 4.96021 4.58547 5.09191 4.54622C5.22361 4.50697 5.36566 4.52366 5.48468 4.59235C5.95066 4.86133 6.58128 5.38157 6.97128 6.0967Z" fill="#363636"/>
<path fill-rule="evenodd" clip-rule="evenodd" d="M15.7316 6.67559C15.5523 6.88562 15.5772 7.20122 15.7873 7.3805C16.5521 8.03336 17.1516 8.92237 17.3889 9.98152C17.625 11.035 17.511 12.2931 16.7904 13.7064C15.8805 15.4908 14.3136 16.7645 12.6216 17.6871C10.9308 18.6089 9.15221 19.1602 7.86582 19.5186C7.59981 19.5927 7.44424 19.8684 7.51834 20.1344C7.59245 20.4004 7.86817 20.556 8.13419 20.4819C9.44028 20.118 11.3074 19.5426 13.1003 18.565C14.892 17.5881 16.6467 16.1896 17.6813 14.1607C18.4968 12.5612 18.6568 11.0661 18.3647 9.76287C18.074 8.46531 17.3526 7.5936 16.4457 6.81944C16.2357 6.64016 15.9109 6.46556 15.7316 6.67559Z" fill="#363636"/>
<path fill-rule="evenodd" clip-rule="evenodd" d="M20.0444 14.5058C19.7876 14.7098 19.4538 14.866 19.0762 14.9522C18.5983 15.0613 18.1448 15.0372 17.7967 14.9132C17.8111 14.906 17.8261 14.8987 17.8417 14.8914C18.0873 14.7764 18.4164 14.6864 18.796 14.6221C19.2031 14.5532 19.6404 14.5184 20.0444 14.5058ZM17.4177 13.9858C17.0667 14.1501 16.7094 14.4042 16.5396 14.8053C16.4602 14.9928 16.5024 15.2098 16.6464 15.3538C17.3162 16.0235 18.3979 16.1329 19.2988 15.9271C20.2067 15.7198 21.1477 15.1438 21.4738 14.1756C21.5237 14.0277 21.5016 13.865 21.4141 13.7358C21.3267 13.6065 21.1839 13.5255 21.0281 13.5168C20.4198 13.4825 19.4805 13.492 18.629 13.6362C18.2044 13.7081 17.7773 13.8174 17.4177 13.9858Z" fill="#363636"/>
<path fill-rule="evenodd" clip-rule="evenodd" d="M20.5177 9.64533C20.3785 9.96612 20.1319 10.238 19.8196 10.4682C19.5585 10.6606 19.2663 10.8115 18.9893 10.9234C19.118 10.5262 19.3737 10.241 19.6791 10.0298C19.9395 9.84973 20.2362 9.72531 20.5177 9.64533ZM19.1104 9.20728C18.4165 9.68708 17.8623 10.4732 17.9017 11.6411C17.9066 11.788 17.976 11.9252 18.0912 12.0164C18.2065 12.1076 18.3561 12.1434 18.5002 12.1144C19.0118 12.0113 19.77 11.747 20.4129 11.2731C21.0612 10.7953 21.6447 10.0602 21.6432 9.03087C21.643 8.89345 21.5863 8.76216 21.4863 8.66787C21.3863 8.57357 21.2519 8.52458 21.1147 8.5324C20.5776 8.56302 19.7803 8.744 19.1104 9.20728Z" fill="#363636"/>
<path fill-rule="evenodd" clip-rule="evenodd" d="M15.7923 10.3336C16.159 10.2924 16.4729 10.3714 16.7348 10.5002C16.8808 10.572 17.012 10.6603 17.1266 10.7545C16.6995 10.8265 16.3857 10.7446 16.1598 10.6231C16.0146 10.545 15.8922 10.4431 15.7923 10.3336ZM15.6861 11.5038C16.3295 11.8499 17.1783 11.9136 18.2035 11.4569C18.3341 11.3988 18.4335 11.2875 18.4767 11.1512C18.5198 11.0148 18.5026 10.8666 18.4293 10.7438C18.2112 10.3787 17.7833 9.90152 17.1762 9.60288C16.5502 9.29492 15.7447 9.18439 14.8356 9.56397C14.5903 9.66638 14.468 9.9428 14.5572 10.1932C14.7076 10.6152 15.0685 11.1716 15.6861 11.5038Z" fill="#363636"/>
<path fill-rule="evenodd" clip-rule="evenodd" d="M13.8482 6.49934C14.1977 6.48766 14.549 6.59407 14.8907 6.77764C15.1765 6.93111 15.438 7.13047 15.6577 7.33287C15.2438 7.38669 14.8765 7.2779 14.5548 7.09239C14.2806 6.93424 14.041 6.71944 13.8482 6.49934ZM14.0553 7.95867C14.7861 8.38011 15.7338 8.54408 16.7722 8.00819C16.9028 7.94079 16.9972 7.81933 17.0302 7.67611C17.0632 7.53288 17.0315 7.38239 16.9435 7.26464C16.6311 6.84645 16.0675 6.27458 15.3639 5.89667C14.6544 5.51561 13.7402 5.3033 12.8108 5.7456C12.6867 5.80465 12.5924 5.91217 12.55 6.0429C12.5076 6.17362 12.5209 6.31603 12.5868 6.43665C12.8446 6.90891 13.3496 7.55175 14.0553 7.95867Z" fill="#363636"/>
<path fill-rule="evenodd" clip-rule="evenodd" d="M14.5251 12.7377C14.8109 12.9392 15.0268 13.2361 15.1887 13.5886C15.3239 13.8834 15.4122 14.2002 15.4654 14.4942C15.1028 14.2874 14.8755 13.979 14.7309 13.637C14.6076 13.3454 14.5461 13.0296 14.5251 12.7377ZM13.8098 14.0265C14.1384 14.8035 14.7953 15.506 15.9467 15.7051C16.0916 15.7302 16.2401 15.6902 16.3528 15.5959C16.4655 15.5016 16.531 15.3625 16.5319 15.2155C16.5351 14.6935 16.4306 13.8974 16.0975 13.1715C15.7616 12.4396 15.1606 11.7187 14.1526 11.5107C14.018 11.483 13.8779 11.5118 13.7652 11.5905C13.6525 11.6692 13.5772 11.7908 13.557 11.9267C13.4776 12.4588 13.4926 13.2762 13.8098 14.0265Z" fill="#363636"/>
<path fill-rule="evenodd" clip-rule="evenodd" d="M18.2545 5.85489C18.2745 6.20399 18.1765 6.55774 18.0011 6.90379C17.8545 7.1931 17.6614 7.45931 17.4643 7.68381C17.4006 7.27126 17.5007 6.90149 17.6784 6.57547C17.83 6.29754 18.039 6.05295 18.2545 5.85489ZM16.8005 6.0967C16.5765 6.50743 16.4333 6.98297 16.4457 7.5C16.4557 7.91529 16.9042 8.23501 17.1539 8.69174C17.2244 8.82071 17.0099 9.03445 17.1539 9.06402C17.2979 9.09359 17.4475 9.05832 17.5632 8.96758C17.9738 8.64532 18.5321 8.06825 18.8931 7.35584C19.2571 6.63749 19.4476 5.71846 18.9833 4.79984C18.9213 4.6772 18.8116 4.58547 18.6799 4.54622C18.5482 4.50697 18.4061 4.52365 18.2871 4.59235C17.8211 4.86133 17.1905 5.38157 16.8005 6.0967Z" fill="#363636"/>
</svg>
