<?xml version="1.0" encoding="UTF-8"?><svg id="Camada_1" xmlns="http://www.w3.org/2000/svg" viewBox="0 0 619.72 656.05"><defs><style>.cls-1{fill:none;stroke:#fff;stroke-miterlimit:10;stroke-width:15px;}</style></defs><path class="cls-1" d="M224.6,282.03c-14.26,0-26.24-14.61-29.58-19.1-.58-.77-.58-1.83,0-2.6,3.35-4.49,15.32-19.1,29.58-19.1s26.24,14.61,29.58,19.1c.58.77.58,1.83,0,2.6-3.35,4.49-15.32,19.1-29.58,19.1Z"/><path class="cls-1" d="M167.36,222.64c0-14.26,14.61-26.24,19.1-29.58.77-.58,1.83-.58,2.6,0,4.49,3.35,19.1,15.32,19.1,29.58s-14.61,26.24-19.1,29.58c-.77.58-1.83.58-2.6,0-4.49-3.35-19.1-15.32-19.1-29.58Z"/><path class="cls-1" d="M137.45,279.86c-4.76-13.44,5.01-29.61,8.13-34.26.54-.8,1.53-1.15,2.45-.87,5.35,1.65,23.12,8.06,27.88,21.51,4.76,13.44-5.01,29.61-8.13,34.26-.54.8-1.53,1.15-2.45.87-5.35-1.65-23.12-8.06-27.88-21.51Z"/><path class="cls-1" d="M215.32,341.55c-10.38,9.78-29.12,7.36-34.63,6.38-.95-.17-1.67-.93-1.78-1.89-.65-5.57-1.94-24.41,8.44-34.19s29.12-7.36,34.63-6.38c.95.17,1.67.93,1.78,1.89.65,5.57,1.94,24.41-8.44,34.19Z"/><path class="cls-1" d="M132.93,337.57c-9.78-10.38-7.36-29.12-6.38-34.63.17-.95.93-1.67,1.89-1.78,5.57-.65,24.41-1.94,34.19,8.44,9.78,10.38,7.36,29.12,6.38,34.63-.17.95-.93,1.67-1.89,1.78-5.57.65-24.41,1.94-34.19-8.44Z"/><path class="cls-1" d="M245.56,392.12c-.87,14.23-16.18,25.3-20.87,28.37-.81.53-1.86.46-2.59-.16-4.28-3.61-18.14-16.46-17.27-30.69s16.18-25.3,20.87-28.37c.81-.53,1.86-.46,2.59.16,4.28,3.61,18.14,16.46,17.27,30.69Z"/><path class="cls-1" d="M182.79,445.64c-14.23-.87-25.3-16.18-28.37-20.87-.53-.81-.46-1.86.16-2.59,3.61-4.28,16.46-18.14,30.69-17.27,14.23.87,25.3,16.18,28.37,20.87.53.81.46,1.86-.16,2.59-3.61,4.28-16.46,18.14-30.69,17.27Z"/><path class="cls-1" d="M142.54,393.73c-11.77-8.06-13.39-26.88-13.62-32.48-.04-.96.56-1.83,1.47-2.14,5.3-1.82,23.44-7.1,35.2.95,11.77,8.06,13.39,26.88,13.62,32.48.04.96-.56,1.83-1.47,2.14-5.3,1.82-23.44,7.1-35.2-.95Z"/><path class="cls-1" d="M221.23,219.26c45.42-43.41-173.28,138.07,60.54,243.9,120.34,54.47,97.97,44.74,97.97,44.74"/><path class="cls-1" d="M376,282.09c14.26,0,26.24-14.61,29.58-19.1.58-.77.58-1.83,0-2.6-3.35-4.49-15.32-19.1-29.58-19.1-14.26,0-26.24,14.61-29.58,19.1-.58.77-.58,1.83,0,2.6,3.35,4.49,15.32,19.1,29.58,19.1Z"/><path class="cls-1" d="M433.24,222.7c0-14.26-14.61-26.24-19.1-29.58-.77-.58-1.83-.58-2.6,0-4.49,3.35-19.1,15.32-19.1,29.58,0,14.26,14.61,26.24,19.1,29.58.77.58,1.83.58,2.6,0,4.49-3.35,19.1-15.32,19.1-29.58Z"/><path class="cls-1" d="M463.16,279.92c4.76-13.44-5.01-29.61-8.13-34.26-.54-.8-1.53-1.15-2.45-.87-5.35,1.65-23.12,8.06-27.88,21.51-4.76,13.44,5.01,29.61,8.13,34.26.54.8,1.53,1.15,2.45.87,5.35-1.65,23.12-8.06,27.88-21.51Z"/><path class="cls-1" d="M385.29,341.61c10.38,9.78,29.12,7.36,34.63,6.38.95-.17,1.67-.93,1.78-1.89.65-5.57,1.94-24.41-8.44-34.19-10.38-9.78-29.12-7.36-34.63-6.38-.95.17-1.67.93-1.78,1.89-.65,5.57-1.94,24.41,8.44,34.19Z"/><path class="cls-1" d="M467.68,337.63c9.78-10.38,7.36-29.12,6.38-34.63-.17-.95-.93-1.67-1.89-1.78-5.57-.65-24.41-1.94-34.19,8.44-9.78,10.38-7.36,29.12-6.38,34.63.17.95.93,1.67,1.89,1.78,5.57.65,24.41,1.94,34.19-8.44Z"/><path class="cls-1" d="M355.05,392.18c.87,14.23,16.18,25.3,20.87,28.37.81.53,1.86.46,2.59-.16,4.28-3.61,18.14-16.46,17.27-30.69-.87-14.23-16.18-25.3-20.87-28.37-.81-.53-1.86-.46-2.59.16-4.28,3.61-18.14,16.46-17.27,30.69Z"/><path class="cls-1" d="M417.81,445.7c14.23-.87,25.3-16.18,28.37-20.87.53-.81.46-1.86-.16-2.59-3.61-4.28-16.46-18.14-30.69-17.27-14.23.87-25.3,16.18-28.37,20.87-.53.81-.46,1.86.16,2.59,3.61,4.28,16.46,18.14,30.69,17.27Z"/><path class="cls-1" d="M458.06,393.79c11.77-8.06,13.39-26.88,13.62-32.48.04-.96-.56-1.83-1.47-2.14-5.3-1.82-23.44-7.1-35.2.95-11.77,8.06-13.39,26.88-13.62,32.48-.04.96.56,1.83,1.47,2.14,5.3,1.82,23.44,7.1,35.2-.95Z"/><path class="cls-1" d="M379.38,219.32c-45.42-43.41,173.28,138.07-60.54,243.9-120.34,54.47-97.97,44.74-97.97,44.74"/></svg>