<svg width="24" height="24" viewBox="0 0 24 24" fill="none" xmlns="http://www.w3.org/2000/svg">
<path fill-rule="evenodd" clip-rule="evenodd" d="M7.99976 18V20H15.9998V18H7.99976Z" fill="#363636"/>
<path fill-rule="evenodd" clip-rule="evenodd" d="M8.99976 17V18H14.9998V17H8.99976Z" fill="#363636"/>
<path fill-rule="evenodd" clip-rule="evenodd" d="M11.9998 14.9091C14.6286 14.9091 16.9998 12.1599 16.9998 8.42105C16.9998 7.33643 16.9965 6.64454 16.9198 6.14459C16.8507 5.69481 16.7496 5.59147 16.6701 5.5298C16.522 5.41487 16.1866 5.27243 15.3739 5.18819C14.5855 5.10646 13.5084 5.09091 11.9998 5.09091C10.4911 5.09091 9.41407 5.10646 8.62561 5.18819C7.8129 5.27243 7.47753 5.41487 7.32944 5.5298C7.24997 5.59147 7.14883 5.69481 7.07978 6.14459C7.00303 6.64454 6.99976 7.33643 6.99976 8.42105C6.99976 12.1599 9.37092 14.9091 11.9998 14.9091ZM11.9998 16C15.3135 16 17.9998 12.6068 17.9998 8.42105C17.9998 4.23532 17.9998 4 11.9998 4C5.99976 4 5.99976 4.23532 5.99976 8.42105C5.99976 12.6068 8.68605 16 11.9998 16Z" fill="#363636"/>
<path d="M12.9998 15H10.9998V18H12.9998V15Z" fill="#363636"/>
<path fill-rule="evenodd" clip-rule="evenodd" d="M19.4977 7.5H17.222V6.5H19.9998C20.2759 6.5 20.4998 6.72386 20.4998 7C20.4998 7.01261 20.4998 7.02531 20.4998 7.03808C20.4999 8.08946 20.5 9.67966 19.8921 11.0112C19.5779 11.6995 19.0967 12.3318 18.3661 12.788C17.6373 13.243 16.6967 13.5 15.4998 13.5C15.9998 13 15.4834 12.5769 16.4168 12.4351C17.0078 12.3452 17.4709 12.168 17.8365 11.9397C18.3716 11.6057 18.7342 11.1397 18.9824 10.5959C19.4171 9.64385 19.4866 8.4949 19.4977 7.5Z" fill="#363636"/>
<path fill-rule="evenodd" clip-rule="evenodd" d="M3.74212 6.64647C3.83589 6.55269 3.96308 6.5 4.0957 6.5H6.82018V7.5H4.59809C4.60995 8.44506 4.68068 9.58749 5.10388 10.5485C5.34875 11.1046 5.70546 11.5829 6.22793 11.9257C6.62069 12.1833 7.12829 12.3782 7.79105 12.459C8.5 12.5 7.79105 13.1224 8.49983 13.5C7.3215 13.5 6.39561 13.2316 5.67944 12.7618C4.96328 12.292 4.49428 11.6454 4.18869 10.9515C3.59586 9.60532 3.59577 8.0192 3.59571 7.03424C3.59571 7.02277 3.5957 7.01138 3.5957 7.00007C3.59568 6.86745 3.64835 6.74026 3.74212 6.64647Z" fill="#363636"/>
</svg>
