<?xml version="1.0" encoding="UTF-8"?>
<svg id="Layer_1" data-name="Layer 1" xmlns="http://www.w3.org/2000/svg" version="1.1" viewBox="0 0 24 24">
  <defs>
    <style>
      .cls-1 {
        fill: #fff;
        fill-rule: evenodd;
        stroke-width: 0px;
      }
    </style>
  </defs>
  <path class="cls-1" d="M7.3,19.1h7.5c-.2-.4-.6-.9-1.1-1.4-.7-.6-1.6-1.1-2.7-1.1s-2,.5-2.7,1.1c-.5.4-.8.9-1.1,1.4ZM7.7,17c.8-.8,2-1.4,3.4-1.4s2.5.6,3.4,1.4c.8.8,1.4,1.7,1.6,2.5,0,.1,0,.3,0,.4,0,.1-.2.2-.4.2H6.6c-.2,0-.3,0-.4-.2,0-.1-.1-.3,0-.4.2-.8.8-1.7,1.6-2.5Z"/>
  <path class="cls-1" d="M13.6,9.6c.2.2.2.5,0,.7-1.7,1.6-2.1,4-2,5.8,0,.3-.2.5-.5.5-.3,0-.5-.2-.5-.5,0-1.9.3-4.7,2.3-6.6.2-.2.5-.2.7,0Z"/>
  <path class="cls-1" d="M4.3,3.4c0-.2.3-.4.5-.4,1.7,0,3,.5,4.1,1.3,1,.7,1.7,1.7,2.2,2.7.9,2,.8,4.4.5,5.9,0,.2-.3.4-.5.4-1.8,0-3.2-.5-4.3-1.2-1.1-.7-1.8-1.7-2.2-2.7-.9-2-.7-4.4-.3-5.9ZM5.2,4c-.3,1.4-.3,3.3.3,4.9.4.9,1,1.7,1.8,2.2.8.5,1.9.9,3.3,1,.2-1.4.2-3.3-.5-4.9-.4-.9-1-1.7-1.8-2.3-.8-.5-1.8-.9-3.1-1.1ZM13.6,9.4c1.6,0,2.8-.9,3.5-2,.7-1,1.1-2.3,1.2-3.3-2.7.3-4,1.3-4.5,2.3-.6,1-.5,2.1-.2,3ZM13,6c.8-1.5,2.6-2.6,5.9-2.9.1,0,.3,0,.4.1.1.1.2.2.1.4-.1,1.2-.5,2.9-1.5,4.3-1,1.4-2.5,2.6-4.8,2.5-.2,0-.4-.1-.4-.3-.4-1-.6-2.7.2-4.1Z"/>
</svg>