<svg width="24" height="24" viewBox="0 0 24 24" fill="none" xmlns="http://www.w3.org/2000/svg">
<path d="M13.73 20.3101H6.58C5.728 20.3271 5.022 19.6521 5 18.8001V6.00013C5.032 5.16613 5.715 4.50513 6.55 4.50013H13.67C14.515 4.48913 15.213 5.15613 15.24 6.00013V6.22013H18.5C18.911 6.19713 19.259 6.51913 19.27 6.93013V14.5601C19.281 14.9671 18.966 15.3081 18.56 15.3301H15.24V18.7901C15.24 19.6261 14.566 20.3051 13.73 20.3101ZM14.09 19.1501C14.189 19.0571 14.243 18.9261 14.24 18.7901V6.00013C14.229 5.70213 13.978 5.46913 13.68 5.48013H6.58C6.276 5.46313 6.016 5.69613 6 6.00013V18.7901C6.026 19.0811 6.268 19.3061 6.56 19.3101H12.696V19.3071H13.772C13.893 19.2931 14.006 19.2381 14.09 19.1501ZM12.36 11.5701H7.94C7.11 11.5321 6.466 10.8301 6.5 10.0001V7.75013C6.483 6.93713 7.117 6.25813 7.93 6.22013H12.35C13.171 6.25313 13.813 6.93913 13.79 7.76013V10.0001C13.824 10.8161 13.186 11.5031 12.37 11.5301L12.36 11.5701ZM8 7.22013C7.737 7.24113 7.538 7.46713 7.55 7.73013V10.0501C7.533 10.3251 7.745 10.5591 8.02 10.5701H12.38C12.649 10.5591 12.857 10.3291 12.84 10.0601V7.74013C12.858 7.45013 12.621 7.20813 12.33 7.22013H8ZM18.27 14.3301V7.22013H17.39V14.3301H18.27ZM15.24 7.22013V14.3301H16.39V7.22013H15.24ZM7.7 13.8101C7.316 13.8051 7.005 13.4941 7 13.1101C7.01 12.7281 7.318 12.4201 7.7 12.4101C8.084 12.4151 8.395 12.7261 8.4 13.1101C8.4 13.4971 8.087 13.8101 7.7 13.8101ZM7.7 16.0701C7.316 16.0651 7.005 15.7541 7 15.3701C7.01 14.9881 7.318 14.6801 7.7 14.6701C8.084 14.6751 8.395 14.9861 8.4 15.3701C8.4 15.7571 8.087 16.0701 7.7 16.0701ZM7.7 18.2801C7.318 18.2701 7.01 17.9621 7 17.5801C7.005 17.1961 7.316 16.8851 7.7 16.8801C8.087 16.8801 8.4 17.1931 8.4 17.5801C8.395 17.9641 8.084 18.2751 7.7 18.2801ZM10.12 13.8101C9.736 13.8051 9.425 13.4941 9.42 13.1101C9.43 12.7281 9.738 12.4201 10.12 12.4101C10.504 12.4151 10.815 12.7261 10.82 13.1101C10.82 13.4971 10.507 13.8101 10.12 13.8101ZM10.12 16.0701C9.736 16.0651 9.425 15.7541 9.42 15.3701C9.43 14.9881 9.738 14.6801 10.12 14.6701C10.504 14.6751 10.815 14.9861 10.82 15.3701C10.82 15.7571 10.507 16.0701 10.12 16.0701ZM10.12 18.2801C9.738 18.2701 9.43 17.9621 9.42 17.5801C9.425 17.1961 9.736 16.8851 10.12 16.8801C10.507 16.8801 10.82 17.1931 10.82 17.5801C10.815 17.9641 10.504 18.2751 10.12 18.2801ZM12.59 13.8101C12.206 13.8051 11.895 13.4941 11.89 13.1101C11.9 12.7281 12.208 12.4201 12.59 12.4101C12.974 12.4151 13.285 12.7261 13.29 13.1101C13.29 13.4971 12.977 13.8101 12.59 13.8101ZM12.59 16.0701C12.206 16.0651 11.895 15.7541 11.89 15.3701C11.9 14.9881 12.208 14.6801 12.59 14.6701C12.974 14.6751 13.285 14.9861 13.29 15.3701C13.29 15.7571 12.977 16.0701 12.59 16.0701ZM12.59 18.2801C12.208 18.2701 11.9 17.9621 11.89 17.5801C11.895 17.1961 12.206 16.8851 12.59 16.8801C12.977 16.8801 13.29 17.1931 13.29 17.5801C13.285 17.9641 12.974 18.2751 12.59 18.2801Z" fill="#363636"/>
</svg>
