<svg width="24" height="24" viewBox="0 0 24 24" fill="none" xmlns="http://www.w3.org/2000/svg">
<path fill-rule="evenodd" clip-rule="evenodd" d="M7.32047 19.1354H14.8597C14.6281 18.6893 14.2622 18.1925 13.7797 17.7562C13.0616 17.1069 12.1344 16.6354 11.0901 16.6354C10.0458 16.6354 9.11849 17.1069 8.40042 17.7562C7.91791 18.1925 7.55202 18.6893 7.32047 19.1354ZM7.72971 17.0145C8.57831 16.2472 9.73437 15.6354 11.0901 15.6354C12.4458 15.6354 13.6018 16.2472 14.4504 17.0145C15.2916 17.7752 15.8798 18.7326 16.0751 19.5141C16.1125 19.6635 16.0789 19.8217 15.9842 19.9431C15.8894 20.0644 15.744 20.1354 15.5901 20.1354H6.59006C6.4361 20.1354 6.29071 20.0644 6.19596 19.9431C6.10121 19.8217 6.06765 19.6635 6.10499 19.5141C6.30038 18.7326 6.88853 17.7752 7.72971 17.0145Z" fill="#363636"/>
<path fill-rule="evenodd" clip-rule="evenodd" d="M13.6142 9.59218C13.8032 9.79351 13.7932 10.1099 13.5919 10.2989C11.8817 11.9044 11.4899 14.3012 11.565 16.1147C11.5764 16.3906 11.362 16.6235 11.0861 16.6349C10.8102 16.6463 10.5773 16.4319 10.5659 16.156C10.4856 14.2175 10.889 11.4648 12.9074 9.56987C13.1088 9.38086 13.4252 9.39086 13.6142 9.59218Z" fill="#363636"/>
<path fill-rule="evenodd" clip-rule="evenodd" d="M4.3338 3.37291C4.39401 3.14382 4.6067 2.98842 4.84325 3.00068C6.54692 3.08894 7.88422 3.54852 8.91418 4.26203C9.94378 4.97529 10.6385 5.92306 11.0875 6.94467C11.9782 8.97123 11.9145 11.3118 11.5942 12.8471C11.5442 13.0865 11.3285 13.2546 11.0842 13.2445C9.28641 13.1706 7.88912 12.7224 6.82501 12.0137C5.75952 11.3041 5.05768 10.3529 4.62132 9.32239C3.75693 7.28101 3.92742 4.91907 4.3338 3.37291ZM5.20588 4.02952C4.91114 5.4261 4.86097 7.32372 5.54217 8.93247C5.91261 9.80732 6.49745 10.594 7.37933 11.1814C8.18358 11.717 9.25937 12.1031 10.6924 12.2191C10.9095 10.834 10.8777 8.9528 10.172 7.34702C9.7853 6.46716 9.19954 5.67623 8.34472 5.08405C7.56835 4.54621 6.54709 4.15641 5.20588 4.02952ZM13.6074 9.4456C15.2419 9.44047 16.3663 8.57936 17.1374 7.42613C17.8236 6.40001 18.2101 5.16389 18.3803 4.17343C15.702 4.48195 14.4248 5.46417 13.8554 6.47434C13.2989 7.46158 13.3475 8.59663 13.6074 9.4456ZM12.9843 5.98328C13.8191 4.5023 15.6278 3.354 18.9234 3.11907C19.0699 3.10862 19.2136 3.16315 19.3163 3.26817C19.4191 3.37319 19.4704 3.51807 19.4567 3.66435C19.3479 4.8289 18.9199 6.55954 17.9687 7.98198C17.0048 9.42353 15.4757 10.5779 13.2175 10.4335C13.0246 10.4212 12.8562 10.2989 12.7848 10.1193C12.3677 9.07074 12.1642 7.4381 12.9843 5.98328Z" fill="#363636"/>
</svg>
